<?xml version="1.0" standalone="no"?>
<!DOCTYPE svg PUBLIC "-//W3C//DTD SVG 20010904//EN"
 "http://www.w3.org/TR/2001/REC-SVG-20010904/DTD/svg10.dtd">
<svg version="1.0" xmlns="http://www.w3.org/2000/svg"
 width="700.000000pt" height="700.000000pt" viewBox="0 0 700.000000 700.000000"
 preserveAspectRatio="xMidYMid meet">
<metadata>
Created by potrace 1.11, written by Peter Selinger 2001-2013
</metadata>
<g transform="translate(0.000000,700.000000) scale(0.100000,-0.100000)"
fill="#000000" stroke="none">
<path d="M3497 6344 c-1 -1 -46 -5 -101 -9 -54 -4 -108 -8 -120 -10 -11 -2
-55 -9 -96 -14 -138 -20 -182 -29 -370 -82 -359 -100 -693 -274 -1032 -539
-112 -87 -310 -274 -396 -373 -69 -79 -206 -267 -273 -372 -53 -84 -245 -445
-241 -452 1 -2 -8 -24 -19 -50 -55 -127 -134 -350 -183 -513 -9 -30 -27 -109
-40 -175 -25 -122 -30 -150 -41 -240 -4 -27 -8 -60 -10 -71 -3 -19 -10 -105
-21 -239 -5 -66 -4 -528 1 -585 2 -25 6 -76 10 -115 11 -133 17 -181 41 -324
52 -307 117 -520 219 -723 96 -189 170 -256 267 -241 114 16 244 145 337 334
l32 65 137 -136 c154 -153 256 -237 417 -344 323 -215 672 -358 1053 -431 13
-2 31 -6 40 -9 9 -2 44 -8 77 -12 33 -3 71 -8 85 -10 160 -21 642 -20 764 2
14 2 51 6 83 8 233 17 606 108 873 213 260 103 493 236 703 403 135 107 324
304 421 440 25 36 49 70 54 75 26 34 130 219 166 297 66 141 118 289 118 331
-1 44 -37 99 -80 121 -15 7 -61 18 -102 24 -41 7 -86 14 -100 17 -58 14 -183
12 -247 -2 -172 -39 -291 -139 -387 -323 -146 -279 -406 -549 -727 -755 -126
-80 -437 -215 -579 -251 -76 -19 -265 -54 -318 -60 -37 -3 -80 -8 -97 -10 -37
-5 -304 -5 -365 0 -51 4 -133 13 -200 22 -25 3 -88 15 -140 26 -52 11 -111 23
-130 27 -51 11 -272 88 -338 118 -145 65 -347 180 -422 240 -116 92 -160 131
-246 218 -55 56 -134 146 -175 201 -111 148 -181 269 -267 464 -22 51 -89 247
-96 282 -2 13 -12 55 -21 93 -19 79 -20 83 -30 145 -4 25 -9 52 -10 60 -1 8
-6 47 -10 85 -4 39 -9 84 -11 100 -5 44 -4 371 1 435 38 467 208 910 483 1258
61 78 206 229 273 286 56 47 212 162 244 180 17 9 48 28 70 41 264 162 678
287 1026 310 155 11 397 6 519 -9 19 -2 62 -7 95 -11 33 -4 76 -11 95 -15 19
-5 53 -11 75 -14 96 -13 347 -88 480 -143 160 -67 421 -215 528 -302 271 -218
472 -454 653 -770 57 -98 87 -124 146 -127 81 -4 144 49 155 131 8 62 -121
358 -240 550 -33 53 -91 141 -97 145 -3 3 -17 21 -30 40 -66 98 -216 261 -352
383 -313 282 -732 501 -1158 605 -69 17 -141 33 -160 36 -19 3 -44 8 -56 10
-12 2 -45 7 -74 11 -29 4 -62 8 -72 10 -45 9 -454 25 -461 19z"/>
<path d="M3538 5355 c-1 -1 -48 -6 -102 -9 -55 -4 -102 -8 -105 -10 -3 -2 -33
-7 -66 -10 -205 -23 -454 -98 -628 -188 -382 -199 -683 -662 -763 -1173 -16
-104 -16 -307 1 -385 2 -14 7 -36 10 -49 13 -65 40 -142 71 -202 110 -209 409
-380 839 -479 156 -36 169 -39 220 -46 28 -3 52 -8 55 -9 3 -2 35 -6 70 -10
36 -3 72 -8 80 -10 8 -2 49 -7 90 -10 41 -4 83 -9 93 -11 33 -6 271 -17 372
-17 144 -1 378 13 485 29 19 3 55 7 80 10 25 3 70 9 100 14 30 5 71 11 90 14
63 10 183 35 265 56 44 11 91 23 104 26 42 9 244 86 303 114 229 113 360 236
418 393 46 125 63 226 64 372 1 249 -56 476 -183 730 -94 185 -169 294 -291
415 -136 136 -235 202 -440 293 -75 33 -319 99 -420 113 -25 3 -52 7 -60 9 -8
1 -46 5 -85 10 -38 4 -79 10 -90 12 -23 5 -571 13 -577 8z m-608 -1204 c167
-121 21 -541 -187 -541 -154 0 -198 240 -78 430 75 120 188 167 265 111z
m1877 20 c23 -2 74 -54 89 -89 16 -38 21 -135 10 -192 -4 -19 -20 -62 -35 -95
-116 -245 -353 -245 -366 0 -8 177 145 393 270 380 11 -2 25 -3 32 -4z"/>
</g>
</svg>
