<svg width="32" height="32" viewBox="0 0 32 32" fill="none" xmlns="http://www.w3.org/2000/svg">
<path d="M23.462 9.38408C23.0378 9.0151 21.6247 7.5 17.095 7.5C12.5653 7.5 11.1556 9.0151 10.7414 9.38408C9.60224 10.3637 7.69481 13.6453 8.71701 16.4763C9.79599 19.4837 17.0883 19.5 17.0883 19.5C17.0883 19.5 24.3907 19.5 25.4764 16.4763C26.5086 13.6453 24.6011 10.3735 23.462 9.38408ZM13.5006 14.4943C13.2467 15.1963 12.6789 15.6404 12.2279 15.4739C11.7769 15.3073 11.6233 14.6249 11.8771 13.9229C12.131 13.2208 12.6989 12.7767 13.1465 12.9433C13.5942 13.1098 13.7478 13.7922 13.5006 14.4943ZM22.1459 14.4943C21.892 15.1963 21.3241 15.6404 20.8731 15.4739C20.4222 15.3073 20.2685 14.6249 20.5391 13.9229C20.8097 13.2208 21.3608 12.7767 21.8085 12.9433C22.2561 13.1098 22.3997 13.7922 22.1459 14.4943Z" fill="#000044"/>
<path d="M28.6649 20.2113L27.7468 20.0624C27.2376 19.9824 26.7164 20.0674 26.2577 20.3051C25.7989 20.5428 25.4259 20.9212 25.1919 21.3863C23.6204 24.4644 20.2094 26.5264 16.5274 26.5264C10.5321 26.5264 6.10181 22.4057 6.10181 16.0012C6.10181 9.78541 10.5321 5.47273 16.5274 5.47273C20.6799 5.47273 24.5384 7.19383 26.8189 11.4734C26.8883 11.6371 27.0189 11.7662 27.1822 11.8323C27.3455 11.8984 27.528 11.8961 27.6896 11.8259C27.8512 11.7557 27.9787 11.6233 28.0439 11.4579C28.1092 11.2925 28.1069 11.1076 28.0376 10.9438C26.306 6.07511 21.6503 3.0003 16.413 3.0003C13.5612 2.98079 10.782 3.91112 8.50318 5.64815C5.82737 7.57777 4.16111 10.2819 3.08622 13.8035C2.10607 17.0339 2.21715 23.1901 4.11211 25.9836C4.88969 27.1321 6.03974 25.9836 6.62456 24.5968C7.84881 26.0026 9.35848 27.1237 11.0502 27.8835C12.7419 28.6433 14.5757 29.0238 16.4261 28.9989C22.9604 28.9989 27.6259 25.9472 29.2072 21.0818C29.2386 20.9884 29.2489 20.889 29.2375 20.791C29.226 20.693 29.1931 20.5989 29.1411 20.5154C29.0891 20.432 29.0194 20.3614 28.937 20.3087C28.8546 20.2561 28.7616 20.2228 28.6649 20.2113Z" fill="#000044"/>
</svg>
