<svg width="95" height="24" viewBox="0 0 95 24" fill="none" xmlns="http://www.w3.org/2000/svg">
<g clip-path="url(#clip0)">
<path d="M19.254 5.99776C18.8663 5.6525 17.5752 4.2348 13.4363 4.2348C9.29736 4.2348 8.00929 5.6525 7.6308 5.99776C6.58996 6.91437 4.8471 9.98502 5.7811 12.634C6.767 15.448 13.4302 15.4633 13.4302 15.4633C13.4302 15.4633 20.1025 15.4633 21.0945 12.634C22.0377 9.98502 20.2948 6.92354 19.254 5.99776ZM10.152 10.7794C9.92003 11.4363 9.40114 11.8519 8.98908 11.696C8.57702 11.5402 8.43661 10.9016 8.66859 10.2447C8.90056 9.58783 9.41945 9.1723 9.82846 9.32812C10.2375 9.48394 10.3779 10.1225 10.152 10.7794ZM18.0514 10.7794C17.8194 11.4363 17.3005 11.8519 16.8885 11.696C16.4764 11.5402 16.336 10.9016 16.5832 10.2447C16.8305 9.58783 17.3341 9.1723 17.7431 9.32812C18.1521 9.48394 18.2834 10.1225 18.0514 10.7794Z" fill="#000044"/>
<path d="M24.4635 15.8873L23.6058 15.7498C23.13 15.676 22.6432 15.7545 22.2146 15.9739C21.786 16.1934 21.4375 16.5427 21.2189 16.972C19.7507 19.8135 16.5641 21.717 13.1242 21.717C7.52319 21.717 3.38426 17.9131 3.38426 12.0009C3.38426 6.26289 7.52319 2.28173 13.1242 2.28173C17.0036 2.28173 20.6084 3.87053 22.7389 7.82113C22.8037 7.97226 22.9258 8.09145 23.0783 8.15247C23.2309 8.21349 23.4014 8.21136 23.5524 8.14653C23.7033 8.0817 23.8224 7.9595 23.8834 7.80679C23.9443 7.65409 23.9422 7.4834 23.8774 7.33227C22.2597 2.83781 17.9102 -0.000638002 13.0173 -0.000638002C10.3531 -0.0186459 7.7567 0.840167 5.6277 2.44367C3.12786 4.22495 1.57119 6.7212 0.566979 9.97212C-0.348713 12.9542 -0.244934 18.6372 1.5254 21.2159C2.25185 22.2761 3.32626 21.2159 3.87263 19.9357C5.01637 21.2334 6.42675 22.2684 8.00721 22.9698C9.58767 23.6711 11.3009 24.0224 13.0295 23.9994C19.1342 23.9994 23.4929 21.1823 24.9702 16.6909C24.9995 16.6047 25.0091 16.5129 24.9984 16.4225C24.9877 16.332 24.957 16.2451 24.9084 16.1681C24.8598 16.091 24.7947 16.0259 24.7177 15.9773C24.6407 15.9287 24.5539 15.898 24.4635 15.8873Z" fill="#000044"/>
<path d="M32.1652 11.5494C32.6251 11.5549 33.0674 11.7274 33.4099 12.0348C33.7523 12.3422 33.9716 12.7636 34.0271 13.2207L35.9836 12.8326C35.8633 11.9195 35.4066 11.0844 34.703 10.4909C33.9995 9.89739 33.0998 9.58839 32.1804 9.62448C29.5371 9.62448 28.0293 11.4577 28.0293 13.734C28.0293 16.0102 29.5829 17.8435 32.1804 17.8435C34.5399 17.8435 35.8432 16.1111 35.9836 14.6322L34.0271 14.2473C33.9716 14.7044 33.7523 15.1258 33.4099 15.4331C33.0674 15.7405 32.6251 15.913 32.1652 15.9186C30.8496 15.9186 30.0804 14.9225 30.0804 13.734C30.0804 12.5454 30.8496 11.5494 32.1652 11.5494Z" fill="#000044"/>
<path d="M41.7556 9.62447C41.2629 9.61805 40.7774 9.74248 40.3484 9.98508C39.9195 10.2277 39.5625 10.5798 39.3137 11.0055V6.15662H37.2626V17.7212H39.3137V13.4773C39.3137 12.2246 40.2142 11.5494 41.0139 11.5494C41.896 11.5494 42.6499 11.9374 42.6499 13.2207V17.7212H44.7041V13.0923C44.7072 10.6939 43.5045 9.62447 41.7556 9.62447Z" fill="#000044"/>
<path d="M53.4307 15.4358V13.2971C53.4307 10.3425 51.7153 9.63062 49.9327 9.63062C47.8816 9.63062 46.5965 10.755 46.2455 12.023L48.138 12.4568C48.2408 12.1021 48.4628 11.7938 48.7664 11.584C49.07 11.3741 49.4367 11.2756 49.8045 11.305C50.9613 11.305 51.3765 11.916 51.3765 12.8601C48.2326 12.6677 45.9891 13.1993 45.9891 15.3045C45.9891 16.7344 47.0147 17.8251 48.843 17.8251C49.3998 17.8425 49.951 17.7099 50.4391 17.4412C50.9271 17.1725 51.3342 16.7775 51.6176 16.2975C51.7611 17.2446 52.3379 17.8251 53.2384 17.8251C53.5688 17.8291 53.8964 17.7635 54.1998 17.6327V16.2394C53.9435 16.3341 53.4307 16.1936 53.4307 15.4358ZM49.3711 16.1752C48.5226 16.2211 48.0403 15.885 48.0403 15.2281C48.0403 14.232 49.7893 14.0059 51.3765 14.1831C51.2177 15.2097 50.2868 16.1263 49.3711 16.1752Z" fill="#000044"/>
<path d="M57.5359 6.15662H55.4817V17.7151H57.5359V6.15662Z" fill="#000044"/>
<path d="M68.3105 9.62443C67.8158 9.62262 67.3288 9.74812 66.8964 9.98888C66.464 10.2296 66.1007 10.5776 65.8412 10.9994C65.6631 10.5822 65.3645 10.2279 64.9838 9.98187C64.6031 9.7358 64.1577 9.6092 63.7046 9.61832C62.7431 9.61832 62.0197 10.1469 61.5222 10.9994V9.74664H59.4589V17.7212H61.51V13.3489C61.51 11.9679 62.4562 11.5493 62.9873 11.5493C63.5184 11.5493 64.2082 11.809 64.2082 13.0923V17.7212H66.2624V13.3489C66.2624 11.9679 67.1446 11.5493 67.6726 11.5493C68.2007 11.5493 68.9546 11.809 68.9546 13.0923V17.7212H71.0088V13.0923C71.0057 10.6938 69.8672 9.62443 68.3105 9.62443Z" fill="#000044"/>
<path d="M76.3779 9.62445C73.875 9.62445 72.2878 11.3416 72.2878 13.7339C72.2878 15.998 73.7957 17.8434 76.4084 17.8434C78.5725 17.8434 79.766 16.5449 80.1628 15.3075L78.2062 14.8889C78.0557 15.239 77.8042 15.5363 77.4839 15.7426C77.1637 15.9489 76.7892 16.0548 76.4084 16.0469C75.8946 16.0739 75.3901 15.9021 74.9992 15.5671C74.6083 15.2322 74.361 14.7596 74.3085 14.2472H80.1933C80.2256 14.04 80.242 13.8306 80.2421 13.6209C80.2269 10.7977 78.2703 9.62445 76.3779 9.62445ZM74.3878 12.8326C74.6137 11.9801 75.1753 11.3049 76.4237 11.3049C76.8541 11.2853 77.2752 11.4335 77.5986 11.7185C77.922 12.0034 78.1223 12.4028 78.1574 12.8326H74.3878Z" fill="#000044"/>
<path d="M83.5781 11.4057V9.75279H81.5239V17.7212H83.5781V14.1036C83.5781 11.9832 85.2783 11.3538 86.8166 11.9832L87.1676 9.75279C85.7086 9.44725 84.0421 9.93 83.5781 11.4057Z" fill="#000044"/>
<path d="M91.5691 12.7379C90.0429 12.579 89.8689 12.2735 89.8689 11.9679C89.8689 11.6624 90.22 11.2285 91.2639 11.2285C92.3688 11.2285 92.7229 11.9679 92.7717 12.3682L94.7435 11.9679C94.6305 10.9566 93.5409 9.62445 91.3127 9.62445C88.9044 9.62445 87.8148 10.9566 87.8148 12.0688C87.8148 13.0159 88.1536 14.235 90.6229 14.5711C92.1124 14.7819 92.9487 14.8766 92.9487 15.4052C92.9487 15.7597 92.5153 16.2424 91.3279 16.2424C89.9147 16.2424 89.5485 15.3594 89.5301 14.8614L87.5583 15.2463C87.6377 16.5938 88.8739 17.8465 91.2639 17.8465C93.6538 17.8465 94.9999 16.771 94.9999 15.2311C94.9999 13.5262 93.6538 12.9487 91.5691 12.7379Z" fill="#000044"/>
</g>
<defs>
<clipPath id="clip0">
<rect width="95" height="24" fill="white"/>
</clipPath>
</defs>
</svg>
