<svg width="28" height="29" viewBox="0 0 28 29" fill="none" xmlns="http://www.w3.org/2000/svg">
<path d="M14 0.141113C6.25333 0.141113 0 6.40384 0 14.1621C0 21.9204 6.25333 28.1832 14 28.1832C21.7467 28.1832 28 21.9204 28 14.1621C28 6.40384 21.7467 0.141113 14 0.141113ZM21.1244 18.8981C21.7778 19.5524 21.7778 20.6118 21.1244 21.2661C20.7822 21.6089 20.3778 21.7646 19.9422 21.7646C19.5067 21.7646 19.0711 21.6089 18.76 21.2661L14.0933 16.5924L9.39556 21.2661C9.05333 21.6089 8.64889 21.7646 8.21333 21.7646C7.77778 21.7646 7.34222 21.6089 7.03111 21.2661C6.37778 20.6118 6.37778 19.5524 7.03111 18.8981L11.7289 14.1933L7.03111 9.51962C6.37778 8.8653 6.37778 7.80594 7.03111 7.15162C7.68444 6.49731 8.74222 6.49731 9.39556 7.15162L14.0933 11.8565L18.7911 7.15162C19.4444 6.49731 20.5022 6.49731 21.1556 7.15162C21.8089 7.80594 21.8089 8.8653 21.1556 9.51962L16.4578 14.2244L21.1244 18.8981Z" fill="#0000FF"/>
</svg>
