<svg width="22" height="22" viewBox="0 0 22 22" fill="none" xmlns="http://www.w3.org/2000/svg">
<path d="M3.22164 3.22164C-1.07388 7.51715 -1.07388 14.4828 3.22164 18.7784C7.51715 23.0739 14.4828 23.0739 18.7784 18.7784C23.0739 14.4828 23.0739 7.51715 18.7784 3.22164C14.4828 -1.07388 7.51715 -1.07388 3.22164 3.22164ZM11.4412 4.61478C12.3699 4.61478 13.1129 5.381 13.1129 6.30976C13.1129 7.23852 12.3467 8.00475 11.4412 8.00475C10.5124 8.00475 9.74617 7.23852 9.74617 6.28654C9.74617 5.35778 10.5124 4.61478 11.4412 4.61478ZM13.8327 15.9689C13.7863 16.1082 13.6934 16.2707 13.6005 16.3636C12.9968 16.9905 12.2538 17.362 11.3715 17.362C10.9536 17.362 10.5588 17.362 10.1409 17.2923C9.46755 17.1995 8.60844 16.3636 8.72454 15.4813C8.81741 14.8776 8.91029 14.2739 9.00317 13.6702C9.18892 12.6253 9.37467 11.5573 9.56042 10.5124C9.56042 10.4427 9.58364 10.3731 9.58364 10.3034C9.58364 9.86227 9.44433 9.69974 9.00317 9.6533C8.81741 9.63008 8.63166 9.60686 8.44591 9.56042C8.23694 9.49076 8.12084 9.30501 8.14406 9.14248C8.16728 8.95673 8.28338 8.84063 8.51557 8.7942C8.63166 8.77098 8.77098 8.77098 8.91029 8.77098C9.42111 8.77098 9.93193 8.77098 10.466 8.77098C11.0232 8.77098 11.5573 8.77098 12.1145 8.77098C12.5092 8.77098 12.7414 8.95673 12.7414 9.35145C12.7414 9.67652 12.695 10.0016 12.6253 10.3266C12.4164 11.534 12.1842 12.7182 11.9752 13.9256C11.9055 14.3203 11.8127 14.715 11.7662 15.1098C11.743 15.2955 11.7662 15.5045 11.8127 15.6902C11.8823 15.9456 12.0681 16.085 12.3235 16.0617C12.5325 16.0385 12.7414 15.9689 12.9504 15.876C13.1129 15.8063 13.2522 15.6902 13.4148 15.6438C13.6934 15.5509 13.9024 15.7135 13.8327 15.9689Z" fill="white"/>
</svg>
