<svg width="21" height="21" viewBox="0 0 21 21" fill="none" xmlns="http://www.w3.org/2000/svg">
<path d="M4.38462 0C3.46154 0 2.53846 0.9222 2.53846 1.84615V16.3846H15C15.2417 16.3846 15.4615 16.6045 15.4615 16.8462C15.4615 17.0878 15.2417 17.3077 15 17.3077C14.5887 17.3077 13.8462 17.7559 13.8462 18.6923C13.8462 19.6286 14.5887 20.0769 15 20.0769C15.2277 20.0797 15.4366 20.2754 15.4543 20.5024C16.5827 20.3215 17.3077 19.4593 17.3077 18.2452C17.3078 12.9406 17.3075 7.59533 17.3077 2.30769H21C21 0.461538 20.0769 0 19.1538 0C14.2308 0 9.30769 0 4.38462 0ZM5.46635 2.76923C8.40665 2.76923 11.3623 2.76923 14.3077 2.76923C14.5515 2.76577 14.7758 2.98692 14.7758 3.23077C14.7758 3.47462 14.5515 3.69575 14.3077 3.69231H5.53845C5.29679 3.71123 5.05973 3.50847 5.04085 3.26681C5.07692 3 5.24241 2.79436 5.46635 2.76923ZM5.46635 6C8.40665 6 11.3623 6 14.3077 6C14.5515 5.99654 14.7758 6.21768 14.7758 6.46154C14.7758 6.70539 14.5515 6.92652 14.3077 6.92308H5.53845C5.29679 6.942 5.05973 6.73924 5.04085 6.49758C5.07692 6.23077 5.24241 6.02513 5.46635 6ZM5.46635 9.23077C8.40665 9.23077 11.3623 9.23077 14.3077 9.23077C14.5515 9.22731 14.7758 9.44845 14.7758 9.69231C14.7758 9.93617 14.5515 10.1573 14.3077 10.1538H5.53845C5.29679 10.1728 5.05973 9.97001 5.04085 9.72835C5.07692 9.46153 5.24241 9.2559 5.46635 9.23077ZM5.46635 12.4615C8.40665 12.4615 11.3623 12.4615 14.3077 12.4615C14.5515 12.4581 14.7758 12.6792 14.7758 12.9231C14.7758 13.1669 14.5515 13.3881 14.3077 13.3846H5.53845C5.29679 13.4035 5.05973 13.2008 5.04085 12.9591C5.07692 12.6923 5.24241 12.4867 5.46635 12.4615ZM1.61538 16.8462C0.910927 16.8462 0 17.7692 0 18.6923C0 19.8462 0.910927 20.5385 1.61538 20.5385C6.48155 20.5385 10.6416 20.5385 15 20.5385C14.2955 20.5385 13.3846 19.8672 13.3846 18.6923C13.3846 17.5174 14.2955 16.8462 15 16.8462H1.61538Z" fill="white"/>
</svg>
