<svg width="24" height="24" viewBox="0 0 24 24" fill="none" xmlns="http://www.w3.org/2000/svg">
<path d="M12 0C9.62663 0 7.30655 0.703788 5.33316 2.02236C3.35977 3.34094 1.8217 5.21508 0.913451 7.4078C0.00519933 9.60051 -0.232441 12.0133 0.230582 14.3411C0.693605 16.6689 1.83649 18.807 3.51472 20.4853C5.19295 22.1635 7.33115 23.3064 9.65892 23.7694C11.9867 24.2324 14.3995 23.9948 16.5922 23.0866C18.7849 22.1783 20.6591 20.6402 21.9776 18.6668C23.2962 16.6934 24 14.3734 24 12C24 8.8174 22.7357 5.76515 20.4853 3.51472C18.2348 1.26428 15.1826 0 12 0ZM18.7711 16.538C18.7711 16.9045 18.6255 17.256 18.3663 17.5151C18.1072 17.7743 17.7557 17.9198 17.3892 17.9198H6.83188C6.46539 17.9198 6.11391 17.7743 5.85476 17.5151C5.59562 17.256 5.45003 16.9045 5.45003 16.538V16.4661C5.45003 16.0997 5.59562 15.7482 5.85476 15.489C6.11391 15.2299 6.46539 15.0843 6.83188 15.0843H17.3892C17.7557 15.0843 18.1072 15.2299 18.3663 15.489C18.6255 15.7482 18.7711 16.0997 18.7711 16.4661V16.538ZM18.7711 12.0359C18.7711 12.4024 18.6255 12.7539 18.3663 13.013C18.1072 13.2722 17.7557 13.4178 17.3892 13.4178H6.83188C6.46539 13.4178 6.11391 13.2722 5.85476 13.013C5.59562 12.7539 5.45003 12.4024 5.45003 12.0359V11.9641C5.45003 11.5976 5.59562 11.2461 5.85476 10.987C6.11391 10.7278 6.46539 10.5822 6.83188 10.5822H17.3892C17.7557 10.5822 18.1072 10.7278 18.3663 10.987C18.6255 11.2461 18.7711 11.5976 18.7711 11.9641V12.0359ZM18.7711 7.53385C18.7711 7.90034 18.6255 8.25182 18.3663 8.51097C18.1072 8.77012 17.7557 8.91571 17.3892 8.91571H6.83188C6.46539 8.91571 6.11391 8.77012 5.85476 8.51097C5.59562 8.25182 5.45003 7.90034 5.45003 7.53385V7.462C5.45003 7.09551 5.59562 6.74403 5.85476 6.48488C6.11391 6.22573 6.46539 6.08015 6.83188 6.08015H17.3892C17.7557 6.08015 18.1072 6.22573 18.3663 6.48488C18.6255 6.74403 18.7711 7.09551 18.7711 7.462V7.53385Z" fill="#000044"/>
</svg>
